PathFileType	4	(X/Y/Z)	..\data\2014007\dynamic\2014007_C4_04.trc
DataRate	CameraRate	NumFrames	NumMarkers	Units	OrigDataRate	OrigDataStartFrame	OrigNumFrames
100.000000	100.000000	4	52	mm	100.000000	164	188
Frame#	Time	L_IAS			L_IPS			R_IPS			R_IAS			L_FTC			L_FLE			L_FME			L_FAX			L_TTC			L_FAL			L_TAM			L_FCC			L_FM1			L_FM2			L_FM5			R_FTC			R_FLE			R_FME			R_FAX			R_TTC			R_FAL			R_TAM			R_FCC			R_FM1			R_FM2			R_FM5			CV7			TV10			SXS			SJN			L_SIA			L_SRS			L_SAA			L_SAE			L_HLE			L_HME			L_UOA			L_RSP			L_UHE			L_HM2			L_HM5			R_SIA			R_SRS			R_SAA			R_SAE			R_HLE			R_HME			R_UOA			R_RSP			R_UHE			R_HM2			R_HM5			
		X1	Y1	Z1	X2	Y2	Z2	X3	Y3	Z3	X4	Y4	Z4	X5	Y5	Z5	X6	Y6	Z6	X7	Y7	Z7	X8	Y8	Z8	X9	Y9	Z9	X10	Y10	Z10	X11	Y11	Z11	X12	Y12	Z12	X13	Y13	Z13	X14	Y14	Z14	X15	Y15	Z15	X16	Y16	Z16	X17	Y17	Z17	X18	Y18	Z18	X19	Y19	Z19	X20	Y20	Z20	X21	Y21	Z21	X22	Y22	Z22	X23	Y23	Z23	X24	Y24	Z24	X25	Y25	Z25	X26	Y26	Z26	X27	Y27	Z27	X28	Y28	Z28	X29	Y29	Z29	X30	Y30	Z30	X31	Y31	Z31	X32	Y32	Z32	X33	Y33	Z33	X34	Y34	Z34	X35	Y35	Z35	X36	Y36	Z36	X37	Y37	Z37	X38	Y38	Z38	X39	Y39	Z39	X40	Y40	Z40	X41	Y41	Z41	X42	Y42	Z42	X43	Y43	Z43	X44	Y44	Z44	X45	Y45	Z45	X46	Y46	Z46	X47	Y47	Z47	X48	Y48	Z48	X49	Y49	Z49	X50	Y50	Z50	X51	Y51	Z51	X52	Y52	Z52	

165	1.64	509.6095581054689	922.8190917968752	201.1334991455079	306.36376953125	992.7596435546877	280.3000488281251	310.3336791992188	1001.512145996094	360.5318908691407	500.2073059082032	941.4509277343752	456.9769287109377	448.0914306640626	893.747253417969	135.6071319580079	568.9072265625001	482.6938781738282	165.7554931640626	582.6569824218751	465.4723205566407	287.210906982422	543.6040039062501	419.5920410156251	164.9187774658204	595.0772705078126	402.6591796875001	219.0217132568361	440.9147033691407	92.36693572998048	206.7285766601564	471.5824584960938	109.4140930175782	284.6179199218751	389.0068054199219	64.12879180908205	262.547821044922	573.2409667968751	36.31534957885743	271.4096984863282	570.6725463867189	49.21907806396486	222.4564666748048	534.7284545898439	33.03537368774415	185.2823028564454	431.4801635742188	885.889587402344	514.6173706054689	411.5621643066407	469.5441284179689	439.5307922363283	395.6932983398438	474.3775024414064	306.2225952148439	380.2802734375	404.3941345214845	436.1268615722658	438.9539489746094	399.1056213378907	381.550018310547	333.2575988769531	56.79228591918947	384.1838989257814	351.76953125	80.23506164550783	300.9065246582032	281.9942016601562	24.6191635131836	328.8557739257814	470.3897705078126	21.34930419921875	307.2475585937501	478.6007385253907	35.36657333374024	359.7811889648439	436.7393798828126	19.97216224670411	409.0672912597658	359.0590515136719	1441.3115234375	312.717498779297	306.3299865722656	1204.142944335938	327.0948486328126	483.5237426757813	1358.317749023438	303.2634277343751	552.8297729492189	1186.49169921875	303.2785644531251	286.9060363769531	1220.284423828125	234.3463745117188	310.5586853027344	1361.507202148438	233.8436279296876	335.7808227539063	1363.926513671875	160.8484497070313	383.0460205078126	1367.144775390625	127.5715332031251	299.0401916503907	1054.564453125	87.93541717529303	291.3435058593751	1045.174194335938	168.6927642822266	271.0593261718751	1044.320922851563	121.8200378417969	345.9930419921876	799.7469482421877	102.8811645507813	293.6995544433594	812.1890258789065	49.07108306884771	356.7586975097657	707.2749023437501	88.23221588134771	264.0603332519532	732.1644287109376	53.37427902221685	297.2351684570312	1230.850463867188	423.246307373047	321.4081115722656	1360.523193359375	417.7105407714845	375.6394348144531	1380.11279296875	480.2743225097658	421.9123229980469	1384.019409179688	496.5958862304689	441.5238342285157	1070.448486328125	595.5727539062501	395.3070373535157	1050.473510742188	525.5603027343751	402.3165283203126	1036.928833007813	577.3359375000001	583.7130737304688	850.1116943359377	559.7041625976565	545.8977661132812	847.8408813476565	628.381530761719	626.4588012695312	777.5540771484377	563.708190917969	561.4640502929688	773.4838867187502	639.466003417969	
166	1.65	518.3715209960939	922.1088867187502	201.4560852050782	314.8673706054688	992.1057739257815	279.8856201171876	318.5598449707031	1000.841003417969	360.1021118164064	507.9798583984376	940.2346801757815	457.3910522460939	457.2456970214845	893.2378540039065	135.6219024658204	579.5254516601564	482.3225708007814	167.7619018554688	592.2622070312501	465.1601562500001	289.3362426757814	556.4695434570314	418.4334716796876	166.5328521728516	608.4268798828126	403.4055480957032	220.6837005615236	470.5532531738282	86.06731414794923	206.7711944580079	500.0679626464844	104.47216796875	284.8338928222657	420.1812438964844	55.45748519897462	262.4568481445314	605.5527954101564	36.53965759277344	271.2798461914064	602.3565063476564	49.37293243408205	222.4070281982423	567.1293334960939	31.57579803466798	185.1675262451173	438.8632812500001	884.9197998046877	514.6149902343751	415.0763854980469	469.0826110839845	439.3291320800783	399.0091552734376	474.2077026367189	305.8999328613282	383.231201171875	404.2039489746095	435.8612060546877	441.7361450195313	398.3298339843751	381.2746582031251	333.2861022949219	56.93861007690431	383.9817810058595	351.8588256835938	80.18063354492189	300.5345458984376	282.0523071289062	24.79924392700196	328.5666809082032	470.5025024414063	21.25868797302246	307.2654113769532	478.7204895019532	35.30440139770509	359.7494506835939	436.7283325195313	19.91856384277344	408.9906311035158	367.906494140625	1440.595581054688	312.9494018554689	314.9456176757812	1203.46728515625	327.2112121582032	492.1507568359376	1357.458374023438	303.572723388672	561.4506835937501	1185.517211914063	303.8663940429689	295.6651611328125	1219.550415039063	234.6775054931641	319.3843383789062	1360.792236328125	234.1883392333985	344.5194091796876	1363.192504882813	161.2368469238282	391.753387451172	1366.38818359375	127.9272232055665	304.7966308593751	1054.69677734375	89.27439880371099	297.5391540527344	1045.55078125	170.0943908691407	276.7930603027344	1044.845458984375	123.3126831054688	349.2741699218751	799.4849243164065	104.573600769043	296.8362731933594	812.2769165039065	51.03076553344732	359.2075500488282	706.9347534179689	90.21247863769537	266.2579040527344	732.5358276367189	55.99611282348638	305.8538208007812	1230.229614257813	423.5097961425783	329.951416015625	1360.003540039063	418.0873107910158	384.5061340332032	1379.43212890625	480.6101074218752	430.8042297363282	1383.354736328125	496.8832092285158	451.9545898437501	1069.838500976563	596.0239257812501	405.5436401367188	1049.494140625	526.1771240234376	412.9053344726563	1035.882934570313	577.8432006835939	596.2299194335938	850.9494628906252	559.145935058594	558.5404052734375	848.021179199219	627.8635864257815	639.8230590820312	778.911560058594	562.8699951171877	574.9241943359375	773.8111572265627	638.664733886719	
167	1.66	527.1619873046876	921.224060058594	201.6869659423829	323.4251098632812	991.3203735351565	279.4069824218751	326.8103942871094	1000.051452636719	359.6115722656251	515.8150024414064	938.881286621094	457.7480468750002	466.4566345214845	892.4993896484377	135.591781616211	589.5093383789064	481.6738586425782	169.7946624755861	601.2987670898439	464.4798278808595	291.495819091797	568.7681884765626	417.2141113281251	168.1676483154298	621.3142089843751	404.0526123046876	222.3242797851564	500.1640930175782	80.59553527832033	206.8074188232423	528.6146240234376	100.1814880371094	284.9873657226564	451.5544433593751	47.60079956054688	262.3851013183595	637.6616821289064	37.43736648559571	270.8113708496095	633.7565917968751	50.24855804443361	222.0236663818361	599.2206420898439	30.97994804382325	184.7633666992189	446.2928771972657	883.8601684570315	514.5513916015626	418.8482971191407	468.5733032226564	439.0775756835939	402.5527954101563	473.9835205078126	305.5455322265626	386.4316711425782	403.9632873535157	435.5683593750002	444.7280578613282	397.4938354492189	380.939422607422	333.354736328125	57.09630966186525	383.7517700195314	351.9761352539062	80.11354064941408	300.1241149902345	282.0911254882812	25.03142356872559	328.2793579101564	470.6156921386719	21.1493148803711	307.2672424316407	478.8455200195313	35.22561264038087	359.6955566406251	436.7420349121094	19.8803882598877	408.8865661621095	376.7619018554688	1439.741088867188	313.1358642578126	323.6107177734375	1202.66064453125	327.2202758789064	500.8305664062501	1356.47607421875	303.8457946777345	570.0960693359376	1184.383911132813	304.3721618652345	304.4725952148438	1218.697509765625	234.9198760986329	328.240234375	1359.955444335938	234.460922241211	353.3317260742188	1362.338012695313	161.551254272461	400.5433349609376	1365.493896484375	128.2184295654298	310.7825622558594	1054.676635742188	90.51293945312506	303.9665832519532	1045.7568359375	171.375473022461	282.8032836914063	1045.186279296875	124.6840896606446	353.0132751464844	799.1201171875002	106.2471389770509	300.4354553222657	812.2136230468752	52.92084503173833	362.1773376464844	706.5133666992189	92.20018768310553	269.0141296386719	732.7459716796876	58.51208496093755	314.4822692871094	1229.465698242188	423.6922302246095	338.547607421875	1359.334106445313	418.4031066894533	393.4093017578126	1378.622802734375	480.8887329101564	439.6965332031251	1382.537475585938	497.1238708496095	462.2818603515626	1069.0732421875	596.3929443359376	415.6473388671876	1048.389770507813	526.7304687500001	423.3678588867188	1034.697387695313	578.2697143554689	608.5704345703125	851.6455688476565	558.4552001953127	571.0247192382812	848.0528564453127	627.217712402344	652.9881591796875	780.1318359375002	561.8767089843752	588.2197265625	774.000427246094	637.7230224609377	
168	1.67	535.9934082031251	920.1855468750002	201.8400878906251	332.0483703613281	990.4057617187502	278.8640136718751	335.0960388183594	999.1488037109377	359.0618896484376	523.7349853515626	937.4344482421877	458.0484313964845	475.7315979003907	891.5398559570315	135.5244445800782	598.9215087890626	480.7693481445314	171.8228454589845	609.8018798828126	463.4737243652345	293.6629028320314	580.5521240234376	415.946502685547	169.8056030273439	633.7542724609376	404.6295776367189	223.9584350585939	529.6367187500001	76.02221679687501	206.8435668945314	557.0966186523439	96.63558197021487	285.0939025878907	482.9558715820313	40.6496810913086	262.3295288085939	669.4270019531251	39.04686355590821	270.0845031738282	664.7545166015626	51.87847900390626	221.3851318359376	630.8803710937501	31.2743091583252	184.1311492919923	453.7905273437501	882.7340087890627	514.4422607421876	422.8433532714844	468.0198669433595	438.7967834472658	406.3254699707032	473.7035522460939	305.1813049316407	389.8465576171876	403.6785583496095	435.2649841308595	447.9080505371094	396.6025390625001	380.5706481933595	333.4641418457031	57.26856231689455	383.5029296875001	352.134765625	80.04451751708986	299.6968688964845	282.1182861328125	25.31641578674317	327.9999084472657	470.7228698730469	21.02762222290039	307.2561950683595	478.9715881347657	35.13375473022462	359.6250305175782	436.7759704589844	19.85694694519043	408.7629699707033	385.6310424804688	1438.757934570313	313.2726135253907	332.3315734863281	1201.73095703125	327.1262817382814	509.5658569335938	1355.38134765625	304.0770568847657	578.7698364257814	1183.114501953125	304.7856445312501	313.3182678222656	1217.736938476563	235.0796356201173	337.1270141601562	1359.005004882813	234.6593627929688	362.2135314941407	1361.37060546875	161.7894897460938	409.4107055664064	1364.471435546875	128.4414062500001	317.0139770507813	1054.49853515625	91.65045166015631	310.6400756835938	1045.788940429688	172.5371093750001	289.1030273437501	1045.338134765625	125.9352569580079	357.2129821777344	798.6417236328127	107.8832778930665	304.5023193359376	811.9927368164065	54.7268791198731	365.6537475585938	705.9887084960939	94.17198944091803	272.3285522460938	732.7857055664064	60.90715026855474	323.1260375976562	1228.568115234375	423.7963256835939	347.2030029296875	1358.521850585938	418.6536865234377	402.3438110351563	1377.690795898438	481.1058349609377	448.5846557617188	1381.57568359375	497.3145446777345	472.4957275390626	1068.161010742188	596.6773071289065	425.6255493164063	1047.170288085938	527.2056884765626	433.7013244628907	1033.38232421875	578.6062011718751	620.7230224609375	852.1983642578127	557.6364746093752	583.331787109375	847.9360351562502	626.4447021484377	665.9389038085938	781.2100219726565	560.7383422851565	601.3291015625	774.052185058594	636.6443481445315	
